<svg width="168" height="168" viewBox="0 0 168 168" fill="none" xmlns="http://www.w3.org/2000/svg">
<path d="M76.4 116.1C75.9 116 75.4 115.9 74.9 115.9C73.8 115.9 72.6 116.2 71.6 116.8C70.2 117.7 69.2 119.1 68.8 120.7C68.4 122.3 68.7 124 69.5 125.5C70.4 126.9 71.8 127.9 73.4 128.3C73.9 128.4 74.4 128.5 74.9 128.5C77.7 128.5 80.3 126.6 81 123.7C81.4 122.1 81.1 120.4 80.3 118.9C79.4 117.5 78 116.5 76.4 116.1ZM58.3 107.3C56.6 107.3 54.8 108 53.6 109.4C52.5 110.7 51.9 112.3 52 114C52.1 115.7 52.9 117.2 54.1 118.3C55.2 119.3 56.7 119.8 58.1 119.9H58.5C60.2 119.8 61.8 119.1 63 117.8C65.3 115.2 65 111.2 62.4 108.9C61.3 107.8 59.8 107.3 58.3 107.3ZM69.7 145.6C70.7 146.9 72.1 147.8 73.7 148.1C74 148.2 74.4 148.2 74.7 148.2C76 148.2 77.2 147.8 78.3 147C79.6 146 80.5 144.6 80.8 143C81.3 139.7 79.1 136.5 75.7 136C75.4 135.9 75 135.9 74.7 135.9C71.8 135.9 69.1 138 68.7 141C68.3 142.6 68.7 144.3 69.7 145.6ZM59.4 130.3C58.5 129.8 57.4 129.6 56.4 129.6C54.2 129.6 52 130.8 50.8 132.9C50 134.4 49.8 136.1 50.3 137.7C50.8 139.3 51.9 140.6 53.3 141.4C54.2 141.9 55.2 142.2 56.3 142.2C56.9 142.2 57.5 142.1 58.1 141.9C59.7 141.4 61 140.3 61.8 138.9C62.6 137.4 62.8 135.7 62.3 134.1C61.9 132.4 60.9 131.1 59.4 130.3ZM41.2 117.7C39.7 117.7 38.1 118.3 36.9 119.4C34.4 121.8 34.2 125.8 36.6 128.3C37.8 129.6 39.5 130.3 41.2 130.3C42.7 130.3 44.3 129.7 45.5 128.6C48 126.2 48.2 122.3 45.8 119.7C44.6 118.4 42.9 117.7 41.2 117.7ZM75.3 155.5C75 155.5 74.8 155.4 74.5 155.4C71.4 155.4 68.7 157.7 68.3 160.9C67.9 164.3 70.3 167.5 73.8 167.9C74.1 167.9 74.3 167.9 74.6 167.9C77.7 167.9 80.4 165.6 80.8 162.4C81.2 159 78.8 155.9 75.3 155.5ZM57.9 151C57.1 150.7 56.4 150.6 55.6 150.6C53.1 150.6 50.7 152.1 49.7 154.6C49.1 156.2 49.1 157.9 49.8 159.4C50.5 160.9 51.7 162.1 53.3 162.7C54 163 54.8 163.1 55.6 163.1C56.5 163.1 57.3 162.9 58.1 162.6C59.6 161.9 60.8 160.7 61.4 159.1C62.7 156 61.1 152.3 57.9 151ZM42.1 142.4C41 141.6 39.7 141.2 38.4 141.2C38.1 141.2 37.7 141.2 37.4 141.3C35.7 141.6 34.3 142.5 33.3 143.8C32.3 145.2 31.9 146.8 32.2 148.5C32.5 150.2 33.4 151.6 34.7 152.6C35.8 153.4 37.1 153.8 38.4 153.8C38.7 153.8 39.1 153.8 39.4 153.7C41.1 153.4 42.5 152.5 43.5 151.2C44.5 149.8 44.9 148.2 44.6 146.5C44.4 144.9 43.5 143.4 42.1 142.4ZM24.1 127.9C22.7 127.9 21.3 128.4 20.1 129.3C17.4 131.5 17.1 135.5 19.3 138.2C20.5 139.7 22.3 140.5 24.1 140.5C25.5 140.5 26.9 140 28.1 139C29.4 137.9 30.2 136.4 30.3 134.7C30.5 133 29.9 131.4 28.9 130.1C27.7 128.6 25.9 127.9 24.1 127.9Z" fill="white"/>
<path d="M149.2 137.9C150.3 136.6 150.8 135 150.6 133.3C150.4 131.6 149.6 130.1 148.3 129C147.2 128.1 145.8 127.6 144.3 127.6C144.1 127.6 143.9 127.6 143.7 127.6C142 127.8 140.5 128.6 139.5 129.9C138.4 131.2 137.9 132.8 138.1 134.5C138.3 136.2 139.1 137.7 140.4 138.8C141.5 139.7 142.9 140.2 144.4 140.2C144.6 140.2 144.8 140.2 145 140.2C146.6 140 148.1 139.2 149.2 137.9ZM110.1 119.7C111.6 119.7 113.1 119.1 114.3 118.1C115.6 117 116.3 115.4 116.4 113.8C116.5 112.1 115.9 110.5 114.8 109.3C113.6 107.9 111.8 107.2 110.1 107.2C108.6 107.2 107.1 107.7 105.9 108.8C103.3 111.1 103.1 115.1 105.4 117.7C106.5 119 108.1 119.7 109.7 119.8C109.8 119.7 109.9 119.7 110.1 119.7ZM90.3 127.5C91.3 128.1 92.4 128.4 93.5 128.4C94 128.4 94.5 128.3 95 128.2C98.4 127.4 100.4 123.9 99.6 120.6C99.2 119 98.2 117.6 96.7 116.7C95.7 116.1 94.6 115.8 93.5 115.8C93 115.8 92.5 115.9 92 116C88.6 116.8 86.6 120.3 87.4 123.6C87.8 125.3 88.9 126.7 90.3 127.5ZM127.5 130.1C129.2 130 130.7 129.3 131.9 128.1C133 126.9 133.6 125.3 133.5 123.6C133.4 121.9 132.7 120.4 131.5 119.2C130.3 118.1 128.8 117.5 127.3 117.5C127.2 117.5 127.1 117.5 127 117.5C125.3 117.6 123.8 118.3 122.6 119.5C120.3 122.1 120.4 126 123 128.4C124.2 129.5 125.7 130.1 127.2 130.1C127.4 130.1 127.4 130.1 127.5 130.1ZM110.3 141.7C110.9 141.9 111.5 142 112.1 142C113.1 142 114.2 141.7 115.1 141.2C118.1 139.5 119.3 135.7 117.6 132.7C116.8 131.2 115.5 130.1 113.9 129.7C113.3 129.5 112.7 129.4 112.1 129.4C111.1 129.4 110 129.7 109.1 130.2C106.1 131.9 104.9 135.7 106.6 138.7C107.4 140.2 108.7 141.2 110.3 141.7ZM90.2 147.1C91.3 147.9 92.5 148.3 93.8 148.3C94.2 148.3 94.5 148.3 94.9 148.2C96.6 147.9 98 147 99 145.6C100 144.2 100.4 142.6 100.1 140.9C99.8 139.2 98.9 137.8 97.5 136.8C96.4 136 95.2 135.6 93.9 135.6C93.5 135.6 93.2 135.6 92.8 135.7C91.1 136 89.7 136.9 88.7 138.3C87.7 139.7 87.3 141.3 87.6 143C88 144.7 88.9 146.1 90.2 147.1ZM131.1 141.1C130.8 141.1 130.4 141 130.1 141C128.8 141 127.5 141.4 126.4 142.2C125 143.2 124.1 144.7 123.9 146.3C123.6 148 124 149.6 125 151C126.2 152.7 128.1 153.6 130.1 153.6C131.4 153.6 132.7 153.2 133.8 152.4C136.6 150.4 137.2 146.4 135.2 143.6C134.2 142.2 132.8 141.3 131.1 141.1ZM113 150.5C112.2 150.5 111.4 150.6 110.7 151C107.5 152.3 105.9 156 107.2 159.2C108.2 161.7 110.6 163.2 113.1 163.2C113.9 163.2 114.7 163.1 115.4 162.8C117 162.2 118.2 161 118.9 159.4C119.6 157.9 119.6 156.1 119 154.6C117.9 152 115.5 150.5 113 150.5ZM97.9 156.7C96.8 155.8 95.4 155.4 94.1 155.4C93.8 155.4 93.6 155.4 93.3 155.5C89.9 155.9 87.4 159.1 87.9 162.5C88.1 164.2 89 165.6 90.3 166.7C91.4 167.6 92.7 168 94.1 168C94.4 168 94.6 168 94.9 167.9C96.6 167.7 98.1 166.8 99.1 165.5C100.1 164.2 100.6 162.5 100.4 160.9C100.1 159.2 99.3 157.7 97.9 156.7Z" fill="white"/>
<path d="M49.9 104.1C49.2 104.4 48.4 104.5 47.7 104.5C45.2 104.5 42.8 103 41.8 100.5C40.6 97.3 42.2 93.6 45.4 92.4C46.1 92.1 46.9 92 47.6 92C50.1 92 52.5 93.5 53.5 96.1C54.8 99.2 53.2 102.8 49.9 104.1ZM46.1 73.4C45.8 73.4 45.6 73.4 45.3 73.4C42.2 73.4 39.4 75.8 39.1 79C38.9 80.7 39.4 82.3 40.4 83.6C41.4 84.9 42.9 85.8 44.6 86C44.8 86 45.1 86 45.3 86C48.4 86 51.2 83.6 51.5 80.5C51.7 78.8 51.2 77.2 50.2 75.9C49.2 74.6 47.8 73.6 46.1 73.4ZM46.8 58.7C44.8 61.6 45.6 65.5 48.4 67.5C49.5 68.2 50.7 68.6 51.9 68.6C53.9 68.6 55.9 67.6 57.1 65.9C59.1 63 58.3 59.1 55.5 57.1C54.4 56.4 53.2 56 52 56C50 55.9 48 56.9 46.8 58.7ZM36.5 110.2C37.1 108.6 37.1 106.9 36.4 105.4C35.4 103.1 33 101.7 30.6 101.7C29.8 101.7 28.9 101.9 28.1 102.2C26.6 102.9 25.4 104.1 24.8 105.7C24.2 107.3 24.2 109 24.9 110.5C25.6 112 26.8 113.2 28.4 113.8C29.1 114.1 29.9 114.2 30.7 114.2C31.6 114.2 32.4 114 33.2 113.7C34.7 113 35.9 111.8 36.5 110.2ZM25.8 83C25.6 83 25.4 83 25.3 83C23.6 83.1 22.1 83.9 21 85.2C19.9 86.5 19.4 88.1 19.5 89.8C19.6 91.5 20.4 93 21.7 94.1C22.8 95.1 24.3 95.6 25.7 95.6C25.9 95.6 26.1 95.6 26.2 95.6C27.9 95.5 29.4 94.7 30.5 93.4C31.6 92.1 32.1 90.5 32 88.8C31.9 87.1 31.1 85.6 29.8 84.5C28.7 83.5 27.3 83 25.8 83ZM32.8 66.8C31.9 65.4 30.6 64.3 28.9 63.9C28.4 63.8 27.9 63.7 27.4 63.7C26.3 63.7 25.2 64 24.2 64.6C22.8 65.5 21.7 66.8 21.3 68.5C20.5 71.9 22.5 75.3 25.9 76.1C26.4 76.2 26.9 76.3 27.4 76.3C30.2 76.3 32.8 74.4 33.5 71.5C33.9 70 33.6 68.3 32.8 66.8ZM29.8 49C27.9 51.9 28.7 55.8 31.6 57.7C32.6 58.4 33.8 58.7 35 58.7C35.4 58.7 35.9 58.7 36.3 58.6C37.9 58.2 39.4 57.3 40.3 55.9C42.2 53 41.4 49.1 38.4 47.2C37.3 46.5 36.2 46.2 35 46.2C33 46.1 31 47.1 29.8 49ZM19.6 119.8C20.2 118.2 20.1 116.5 19.4 115C18.7 113.5 17.4 112.3 15.8 111.8C15.1 111.6 14.4 111.4 13.7 111.4C12.8 111.4 11.9 111.6 11 112C7.9 113.5 6.5 117.2 8 120.4C9 122.6 11.2 123.9 13.5 124H13.9C14.7 124 15.6 123.8 16.4 123.4C17.8 122.6 19 121.4 19.6 119.8ZM8.7 105.3C12.1 104.6 14.3 101.3 13.7 97.9C13.4 96.2 12.4 94.8 11 93.9C9.9 93.2 8.7 92.8 7.5 92.8C7.1 92.8 6.7 92.8 6.3 92.9C2.9 93.6 0.699999 96.9 1.3 100.3C1.9 103.3 4.5 105.4 7.5 105.4C7.9 105.4 8.3 105.4 8.7 105.3ZM5.9 85.9C6 85.9 6.2 85.9 6.3 85.9C9.6 85.9 12.4 83.3 12.6 80C12.8 76.5 10.2 73.5 6.7 73.3C6.6 73.3 6.4 73.3 6.3 73.3C3.1 73.3 0.4 75.7 0 78.9V80.4C0.1 81.7 0.7 82.8 1.5 83.8C2.7 85 4.2 85.8 5.9 85.9ZM7.9 66.4C8.5 66.6 9.2 66.7 9.8 66.7C10.8 66.7 11.8 66.5 12.7 66C14.2 65.2 15.3 63.9 15.8 62.3C16.3 60.7 16.2 59 15.4 57.5C14.6 56 13.3 54.9 11.7 54.4C11.1 54.2 10.4 54.1 9.8 54.1C7.1 54.1 4.7 55.8 3.8 58.5C3.3 60.1 3.4 61.8 4.2 63.3C5 64.7 6.3 65.8 7.9 66.4ZM14.8 48C15.8 48.6 17 49 18.2 49C18.7 49 19.1 48.9 19.6 48.8C21.2 48.4 22.6 47.4 23.5 46C24.4 44.6 24.7 42.9 24.3 41.3C23.9 39.7 22.9 38.3 21.5 37.4C20.5 36.7 19.3 36.4 18.2 36.4C16.1 36.4 14.1 37.4 12.9 39.3C12 40.7 11.7 42.4 12.1 44C12.4 45.7 13.4 47.1 14.8 48Z" fill="white"/>
<path d="M146.5 37C147.5 36.3 148.7 36 149.9 36C150.4 36 150.8 36 151.3 36.1C152.9 36.5 154.3 37.4 155.2 38.9C156.1 40.3 156.4 42 156 43.6C155.6 45.2 154.7 46.6 153.2 47.6C152.2 48.3 151 48.6 149.8 48.6C149.3 48.6 148.9 48.5 148.4 48.5C146.8 48.1 145.4 47.2 144.4 45.7C143.5 44.3 143.2 42.6 143.6 41C144.1 39.3 145.1 37.9 146.5 37ZM107.7 52.6C108.5 51.1 108.6 49.4 108.1 47.8C107.6 46.2 106.5 44.9 105 44.1C104.1 43.6 103.1 43.4 102.1 43.4C101.5 43.4 100.8 43.5 100.2 43.7C98.6 44.2 97.3 45.3 96.5 46.8C95.7 48.3 95.6001 50 96.1001 51.6C96.6001 53.2 97.7 54.5 99.2 55.3C100.1 55.8 101.1 56 102.1 56C102.7 56 103.4 55.9 104 55.7C105.7 55.2 107 54.1 107.7 52.6ZM121.3 58.5C120.3 57.1 118.9 56.2 117.3 55.9C116.9 55.8 116.5 55.8 116.2 55.8C114.9 55.8 113.7 56.2 112.6 56.9C109.7 58.9 109 62.8 111 65.7C112.2 67.5 114.2 68.4 116.2 68.4C117.4 68.4 118.7 68 119.8 67.3C122.6 65.2 123.3 61.3 121.3 58.5ZM101 34.9C101.7 35.1 102.3 35.2 103 35.2C105.6 35.2 108.1 33.6 109 30.9C109.5 29.3 109.4 27.6 108.7 26.1C108 24.6 106.7 23.5 105.1 22.9C104.4 22.7 103.7 22.6 103.1 22.6C102.2 22.6 101.2 22.8 100.3 23.2C98.8001 23.9 97.7001 25.2 97.1001 26.8C95.9001 30.2 97.7 33.7 101 34.9ZM116.1 43C117.2 43.9 118.6 44.3 119.9 44.3C120.2 44.3 120.4 44.3 120.7 44.2C122.4 44 123.9 43.1 124.9 41.8C125.9 40.5 126.4 38.8 126.2 37.2C126 35.5 125.1 34 123.8 33C122.7 32.1 121.3 31.7 120 31.7C118.1 31.7 116.3 32.5 115 34.1C112.8 36.9 113.3 40.9 116.1 43ZM138.3 48.7C137.4 47.3 136 46.3 134.3 46C133.9 45.9 133.4 45.9 133 45.9C131.8 45.9 130.6 46.3 129.6 46.9C128.2 47.8 127.2 49.2 126.9 50.9C126.6 52.5 126.9 54.2 127.8 55.6C128.7 57 130.1 58 131.8 58.3C132.2 58.4 132.7 58.4 133.1 58.4C134.3 58.4 135.5 58 136.5 57.4C139.4 55.5 140.2 51.6 138.3 48.7ZM101.8 14.8C102.3 14.9 102.8 15 103.4 15C104.5 15 105.6 14.7 106.6 14.1C108 13.2 109.1 11.9 109.5 10.2C109.9 8.59999 109.7 6.89999 108.8 5.39999C107.9 3.99999 106.6 2.89999 104.9 2.49999C104.4 2.39999 103.9 2.29999 103.4 2.29999C100.6 2.29999 98.0001 4.19999 97.3001 6.99999C96.9001 8.59999 97.1 10.3 98 11.8C98.8 13.3 100.2 14.4 101.8 14.8ZM118.5 21.4C119.5 21.9 120.5 22.2 121.5 22.2C123.7 22.2 125.9 21 127 18.9C128.7 15.9 127.5 12 124.5 10.4C123.5 9.89999 122.5 9.59999 121.5 9.59999C119.3 9.59999 117.1 10.8 116 12.9C114.3 15.9 115.5 19.7 118.5 21.4ZM137.4 33.6C137.5 33.6 137.5 33.6 137.6 33.6C139.3 33.5 140.8 32.8 142 31.6C143.1 30.4 143.7 28.8 143.7 27.1C143.6 25.4 142.9 23.9 141.7 22.7C140.5 21.6 139 21 137.4 21C137.3 21 137.3 21 137.2 21C135.5 21.1 134 21.8 132.8 23C131.7 24.2 131.1 25.8 131.1 27.5C131.2 29.2 131.9 30.7 133.1 31.9C134.3 33 135.8 33.6 137.4 33.6Z" fill="white"/>
<path d="M90.3 45.3C90.3 43.6 89.6 42 88.4 40.8C87.2 39.6 85.6 39 84 39C82.3 39 80.7 39.7 79.5 40.9C78.3 42.1 77.7 43.7 77.7 45.4C77.7 48.9 80.5 51.7 84 51.7C87.5 51.6 90.3 48.7 90.3 45.3ZM84 19.5C82.3 19.5 80.7 20.2 79.5 21.4C78.3 22.6 77.7 24.2 77.7 25.9C77.7 29.4 80.5 32.2 84 32.2C87.5 32.2 90.3 29.4 90.3 25.9C90.3 24.2 89.6 22.6 88.4 21.4C87.2 20.1 85.7 19.5 84 19.5ZM83.9 12.6C85.6 12.6 87.2 11.9 88.4 10.7C89.6 9.5 90.2 7.9 90.2 6.2C90.2 4.5 89.5 2.9 88.3 1.8C87.1 0.599999 85.5 0 83.9 0C80.4 0 77.6001 2.8 77.6001 6.3C77.6001 9.8 80.5 12.6 83.9 12.6ZM71.5 46.9C70.4 44.8 68.2 43.5 65.9 43.5C64.9 43.5 63.9 43.7 63 44.2C59.9 45.8 58.8 49.6 60.4 52.7C61.5 54.8 63.7 56.1 66 56.1C67 56.1 68 55.9 68.9 55.4C71.9 53.7 73.1 49.9 71.5 46.9ZM48.8001 32C48.5001 32 48.3 32 48 32C46.6 32 45.2 32.5 44.1 33.3C41.4 35.4 40.9 39.4 43 42.1C44 43.4 45.5 44.3 47.2 44.5C47.5 44.5 47.7 44.5 48 44.5C49.4 44.5 50.8 44 51.9 43.2C54.6 41.1 55.1 37.1 53 34.4C52 33 50.5001 32.2 48.8001 32ZM67.7 23.3C66.8 22.9 65.9 22.7 65 22.7C64.3 22.7 63.6 22.8 62.9 23.1C61.3 23.7 60 24.8 59.3 26.3C58.6 27.8 58.5 29.5 59 31.1C59.9 33.7 62.3 35.3 65 35.3C65.7 35.3 66.4 35.2 67.1 35C70.4 33.9 72.1 30.3 71 27C70.4 25.4 69.2 24.1 67.7 23.3ZM30.6 33.8C32.1 33.8 33.7 33.2 34.9 32.1C36.1 30.9 36.8 29.4 36.9 27.7C37 26 36.3 24.4 35.2 23.2C34 22 32.5001 21.3 30.8001 21.2C30.7001 21.2 30.7 21.2 30.6 21.2C29 21.2 27.4001 21.8 26.3001 22.9C23.8001 25.3 23.7 29.3 26 31.8C27.2 33.2 28.9 33.8 30.6 33.8ZM44.6 22.1C45.2 22.3 45.8 22.3 46.4 22.3C47.4 22.3 48.5 22 49.4 21.5C52.4 19.8 53.5 16 51.9 12.9C51.1 11.4 49.7 10.4 48.1 9.9C47.5 9.7 46.9 9.7 46.4 9.7C45.3 9.7 44.3 10 43.4 10.5C41.9 11.3 40.9 12.7 40.4 14.3C39.9 15.9 40.1 17.6 40.9 19.1C41.7 20.5 43 21.6 44.6 22.1ZM61.3 14.2C62.3 14.8 63.4 15.1 64.5 15.1C65 15.1 65.6 15 66.1 14.9C69.5 14 71.5001 10.6 70.6001 7.2C69.9001 4.4 67.3 2.5 64.5 2.5C64 2.5 63.5 2.6 62.9 2.7C59.5 3.6 57.5 7 58.4 10.4C58.9 12 59.9 13.4 61.3 14.2Z" fill="white"/>
</svg>
